<svg width="1442" height="644" viewBox="0 0 1442 644" fill="none" xmlns="http://www.w3.org/2000/svg">
<g clip-path="url(#clip0_136_374)">
<path d="M1443 0H0V644H1443V0Z" fill="#467190"/>
<g filter="url(#filter0_f_136_374)">
<path d="M1071.85 417.635C1276.83 417.635 1443 324.144 1443 208.817C1443 93.4908 1276.83 0 1071.85 0C866.875 0 700.708 93.4908 700.708 208.817C700.708 324.144 866.875 417.635 1071.85 417.635Z" fill="#6B94B2"/>
<path d="M925.267 579.074C1130.24 579.074 1296.41 485.583 1296.41 370.256C1296.41 254.929 1130.24 161.439 925.267 161.439C720.288 161.439 554.12 254.929 554.12 370.256C554.12 485.583 720.288 579.074 925.267 579.074Z" fill="#467190"/>
<path d="M879.523 466.184C1084.5 466.184 1250.67 372.693 1250.67 257.366C1250.67 142.039 1084.5 48.5486 879.523 48.5486C674.545 48.5486 508.377 142.039 508.377 257.366C508.377 372.693 674.545 466.184 879.523 466.184Z" fill="#6B94B2"/>
<path d="M495.901 557.431C700.88 557.431 867.048 463.941 867.048 348.614C867.048 233.287 700.88 139.797 495.901 139.797C290.923 139.797 124.755 233.287 124.755 348.614C124.755 463.941 290.923 557.431 495.901 557.431Z" fill="#6B94B2"/>
<path d="M611.3 644C816.278 644 982.446 550.509 982.446 435.183C982.446 319.856 816.278 226.365 611.3 226.365C406.321 226.365 240.153 319.856 240.153 435.183C240.153 550.509 406.321 644 611.3 644Z" fill="#467190"/>
<path d="M371.146 442.202C576.125 442.202 742.293 348.711 742.293 233.384C742.293 118.058 576.125 24.5668 371.146 24.5668C166.168 24.5668 0 118.058 0 233.384C0 348.711 166.168 442.202 371.146 442.202Z" fill="#6B94B2"/>
</g>
</g>
<defs>
<filter id="filter0_f_136_374" x="-322" y="-322" width="2087" height="1288" filterUnits="userSpaceOnUse" color-interpolation-filters="sRGB">
<feFlood flood-opacity="0" result="BackgroundImageFix"/>
<feBlend mode="normal" in="SourceGraphic" in2="BackgroundImageFix" result="shape"/>
<feGaussianBlur stdDeviation="161" result="effect1_foregroundBlur_136_374"/>
</filter>
<clipPath id="clip0_136_374">
<rect width="1442" height="644" fill="white"/>
</clipPath>
</defs>
</svg>
