<svg width="502" height="500" viewBox="0 0 502 500" fill="none" xmlns="http://www.w3.org/2000/svg">
<path d="M456.955 400.579L416.255 335.341C416.255 335.341 477.893 358.561 470.898 400.579H456.955Z" fill="#E5E5E5"/>
<path d="M35.056 401.012L33.5109 400.979C34.1085 382.441 35.9415 363.973 38.9958 345.718C45.6772 306.635 56.7872 280.967 72.0173 269.428L72.9046 270.792C37.3269 297.748 35.0741 399.982 35.056 401.012Z" fill="#E5E5E5"/>
<path d="M54.37 400.613L52.8249 400.58C52.8581 398.734 53.8238 355.217 69.6997 343.189L70.5869 344.554C55.3515 356.096 54.3775 400.169 54.37 400.613Z" fill="#E5E5E5"/>
<path d="M81.6947 270.943C85.9614 270.943 89.4203 267.211 89.4203 262.607C89.4203 258.003 85.9614 254.27 81.6947 254.27C77.428 254.27 73.9691 258.003 73.9691 262.607C73.9691 267.211 77.428 270.943 81.6947 270.943Z" fill="#6C63FF"/>
<path d="M77.8689 342.639C82.1356 342.639 85.5945 338.907 85.5945 334.302C85.5945 329.698 82.1356 325.966 77.8689 325.966C73.6022 325.966 70.1433 329.698 70.1433 334.302C70.1433 338.907 73.6022 342.639 77.8689 342.639Z" fill="#6C63FF"/>
<path d="M50.7689 275.941C52.2208 285.948 48.4367 294.899 48.4367 294.899C48.4367 294.899 42.2985 287.625 40.8466 277.617C39.3947 267.61 43.1788 258.659 43.1788 258.659C43.1788 258.659 49.317 265.934 50.7689 275.941Z" fill="#E5E5E5"/>
<path d="M76.0217 300.245C67.1427 303.532 58.3156 301.071 58.3156 301.071C58.3156 301.071 63.8841 293.281 72.7631 289.994C81.6421 286.708 90.4692 289.169 90.4692 289.169C90.4692 289.169 84.9006 296.959 76.0217 300.245Z" fill="#E5E5E5"/>
<path d="M76.3069 363.739C72.2883 365.101 68.0088 365.3 63.8964 364.317C66.5075 360.73 70.0243 358.033 74.0229 356.553C78.0215 355.073 82.3315 354.872 86.4334 355.975C83.7461 359.475 80.2541 362.152 76.3069 363.739V363.739Z" fill="#E5E5E5"/>
<path d="M500.783 402.247H0.938085C0.73319 402.247 0.536698 402.159 0.391815 402.002C0.246933 401.846 0.165527 401.634 0.165527 401.413C0.165527 401.192 0.246933 400.98 0.391815 400.823C0.536698 400.667 0.73319 400.579 0.938085 400.579H500.783C500.988 400.579 501.184 400.667 501.329 400.823C501.474 400.98 501.555 401.192 501.555 401.413C501.555 401.634 501.474 401.846 501.329 402.002C501.184 402.159 500.988 402.247 500.783 402.247Z" fill="#CBCBCB"/>
<path d="M316.754 440.679L310.433 458.43L243.975 440.57L253.303 414.371L316.754 440.679Z" fill="#FFB7B7"/>
<path d="M334.311 442.762L313.932 500L313.261 499.722C307.785 497.452 303.37 492.927 300.986 487.144C298.601 481.361 298.443 474.793 300.547 468.884L300.547 468.883L312.994 433.924L334.311 442.762Z" fill="#2F2E41"/>
<path d="M215.767 218.414L186.805 221.34L185.368 314.33C185.752 318.887 187.775 323.101 191.003 326.069C194.23 329.036 198.407 330.522 202.638 330.208L221 328.843L215.767 218.414Z" fill="#E5E5E5"/>
<path d="M317.87 213.837L298.053 213.562L296.88 324.053C301.259 324.211 305.621 323.393 309.694 321.651C313.767 319.909 317.464 317.28 320.554 313.927C323.644 310.575 326.06 306.572 327.653 302.168C329.246 297.763 329.981 293.051 329.811 288.327L317.87 213.837Z" fill="#E5E5E5"/>
<path d="M202.885 363.305C202.416 366.51 201.735 369.675 200.847 372.775C199.847 375.809 198.303 378.615 197.389 381.681C194.474 391.452 198.514 402.348 204.967 409.89C210.563 416.405 217.786 421.033 225.766 423.217C231.587 424.797 237.64 425.024 243.639 425.244C260.251 425.852 277.291 426.396 293.031 420.635C298.005 418.77 302.808 416.415 307.381 413.6C308.825 412.857 310.097 411.777 311.105 410.436C312.305 408.592 312.459 406.2 312.449 403.946C312.413 396.346 310.986 388.786 311.324 381.195C311.512 376.991 312.241 372.789 311.882 368.598C311.386 363.838 309.538 359.359 306.591 355.776C303.645 352.192 299.745 349.679 295.424 348.58C290.959 347.545 286.327 348.109 281.781 348.581C269.98 349.804 258.129 350.376 246.275 350.294C234.162 350.21 222.124 348.215 210.072 348.007C206.508 347.945 206.58 349.131 205.445 352.853C204.4 356.279 203.545 359.769 202.885 363.305V363.305Z" fill="#2F2E41"/>
<path d="M155.521 357.129C152.264 356.246 148.908 355.861 145.551 355.985C142.025 356.196 138.58 357.214 135.446 358.972C132.312 360.73 129.562 363.188 127.376 366.182C125.191 369.177 123.622 372.639 122.772 376.338C121.923 380.038 121.813 383.89 122.45 387.639C123.263 391.699 124.593 395.619 126.4 399.288C129.044 405.078 132.216 410.854 137.11 414.565C139.973 416.735 143.287 418.089 146.562 419.42L172.341 429.899C176.133 431.441 179.926 432.983 183.756 434.413C202.998 441.589 223.058 445.893 243.38 447.204C249.57 447.601 255.854 447.712 261.893 446.191C263.326 445.83 264.854 445.292 265.684 443.981C266.176 443.057 266.465 442.024 266.531 440.962L268.118 428.978C268.341 427.291 268.556 425.515 267.983 423.926C267.256 421.912 265.435 420.645 263.698 419.569C246.75 409.065 226.961 403.27 212.695 388.853C209.337 385.459 206.527 380.079 202.447 377.774C197.82 375.16 192.37 373.668 187.588 371.259C177.132 365.992 166.852 359.94 155.521 357.129Z" fill="#2F2E41"/>
<path opacity="0.1" d="M181.258 373.285C190.369 376.366 228.84 397.711 235.434 405.164C234.55 405.508 204.562 387.372 203.662 387.081C195.482 384.432 187.257 381.766 179.49 377.889C177.927 377.109 169.338 373.443 169.727 371.316C170.166 368.915 179.64 372.738 181.258 373.285Z" fill="black"/>
<path d="M236.249 187.16L211.716 207.261C211.716 207.261 185.828 208.135 186.703 225.992C187.578 243.85 197.938 328.398 197.938 328.398L200.186 357.489L242.826 370.6C265.865 377.684 290.206 378.247 313.505 372.234V372.234L308.437 343.049C308.437 343.049 328.956 210.503 316.595 204.667C304.234 198.831 296.508 200.499 296.508 200.499L281.014 185.909L236.249 187.16Z" fill="#E5E5E5"/>
<path d="M308.869 154.692C308.869 180.786 286.509 176.839 258.927 176.839C231.344 176.839 208.984 180.786 208.984 154.692C208.984 128.597 219.907 82.342 258.927 82.342C299.291 82.342 308.869 128.597 308.869 154.692Z" fill="#2F2E41"/>
<path d="M284.888 163.535C298.012 149.373 298.012 126.411 284.888 112.249C271.764 98.0862 250.485 98.0862 237.361 112.249C224.237 126.411 224.237 149.373 237.361 163.535C250.485 177.697 271.764 177.697 284.888 163.535Z" fill="#FFB7B7"/>
<path d="M219.931 136.973H233.223L239.087 119.255L240.259 136.973H246.612L250.033 126.638L250.717 136.973H297.923C297.923 126.792 294.175 117.027 287.503 109.828C280.831 102.628 271.783 98.5837 262.348 98.5837H255.506C246.071 98.5837 237.022 102.628 230.35 109.828C223.679 117.027 219.931 126.792 219.931 136.973V136.973Z" fill="#2F2E41"/>
<path d="M292.645 191.328H225.433V278.863H292.645V191.328Z" fill="#6C63FF"/>
<path d="M229.137 439.845L235.458 457.596L301.916 439.737L292.588 413.537L229.137 439.845Z" fill="#FFB7B7"/>
<path d="M232.896 433.09L245.343 468.049L245.344 468.05C247.447 473.959 247.289 480.527 244.905 486.311C242.52 492.094 238.105 496.618 232.63 498.888L231.959 499.166L211.579 441.928L232.896 433.09Z" fill="#2F2E41"/>
<path d="M361.981 350.334C367.32 348.89 372.854 348.482 378.326 349.129C382.696 349.649 387.198 350.961 390.388 354.224C394.271 358.197 395.519 364.34 395.623 370.113C395.794 381.611 392.26 392.816 385.625 401.815C384.004 404.091 382.078 406.092 379.908 407.753C377.568 409.333 375.074 410.63 372.471 411.621L314.74 436.193C299.552 442.657 284.31 449.14 268.468 453.402C267.607 453.851 266.616 453.912 265.713 453.572C264.81 453.232 264.069 452.519 263.653 451.589C263.64 451.561 263.628 451.532 263.616 451.504C258.558 443.707 254.314 435.33 250.963 426.527C250.804 426.318 250.694 426.07 250.643 425.806C250.592 425.541 250.6 425.267 250.668 425.006C250.736 424.746 250.86 424.507 251.032 424.31C251.203 424.113 251.416 423.963 251.652 423.873L292.486 398.555C295.411 396.742 298.369 394.902 300.797 392.376C302.562 390.53 304.007 388.359 305.064 385.965C305.911 384.058 305.99 379.555 307.071 378.145C308.129 376.765 311.75 376.655 313.423 376.112C315.782 375.332 318.091 374.39 320.338 373.291C329.472 368.881 337.606 362.474 346.363 357.311C351.274 354.281 356.522 351.936 361.981 350.334V350.334Z" fill="#2F2E41"/>
<path opacity="0.1" d="M338.832 369.241C331.816 374.927 322.733 380.154 315.78 385.99C313.407 387.981 273.848 411.981 273.289 415.168C279.776 416.347 321.097 385.153 327.009 382.041C332.921 378.928 338.162 374.539 343.355 370.181C344.679 369.071 350.288 365.733 346.488 364.493C344.348 363.794 340.412 368.105 338.832 369.241Z" fill="black"/>
<path d="M464.926 149.823C478.259 149.823 489.067 138.16 489.067 123.773C489.067 109.385 478.259 97.7222 464.926 97.7222C451.593 97.7222 440.785 109.385 440.785 123.773C440.785 138.16 451.593 149.823 464.926 149.823Z" fill="#F1F1F1"/>
<path d="M420.247 154.489C429.6 154.489 437.182 146.307 437.182 136.215C437.182 126.122 429.6 117.94 420.247 117.94C410.895 117.94 403.313 126.122 403.313 136.215C403.313 146.307 410.895 154.489 420.247 154.489Z" fill="#F1F1F1"/>
<path d="M110.034 142.568C117.533 142.568 123.612 136.008 123.612 127.915C123.612 119.823 117.533 113.263 110.034 113.263C102.534 113.263 96.4551 119.823 96.4551 127.915C96.4551 136.008 102.534 142.568 110.034 142.568Z" fill="#F1F1F1"/>
<path d="M132.389 152.421C137.65 152.421 141.914 147.819 141.914 142.142C141.914 136.466 137.65 131.864 132.389 131.864C127.128 131.864 122.864 136.466 122.864 142.142C122.864 147.819 127.128 152.421 132.389 152.421Z" fill="#F1F1F1"/>
<path d="M264.113 22.4011C269.845 22.4011 274.492 17.3865 274.492 11.2006C274.492 5.01466 269.845 0 264.113 0C258.38 0 253.733 5.01466 253.733 11.2006C253.733 17.3865 258.38 22.4011 264.113 22.4011Z" fill="#F1F1F1"/>
<path opacity="0.17" d="M202.256 247.184L203.184 239.456C203.184 239.456 237.794 242.182 232.386 251.353C226.978 260.523 213.845 261.357 213.845 261.357L202.256 247.184Z" fill="#2F2E41"/>
<path d="M228.381 213.581C230.364 213.817 232.273 214.523 233.973 215.649C235.672 216.775 237.12 218.294 238.212 220.095V220.095C239.206 221.739 239.883 223.582 240.2 225.515C240.518 227.448 240.471 229.431 240.06 231.343C239.65 233.256 238.886 235.059 237.814 236.645C236.742 238.231 235.384 239.567 233.821 240.572C233.248 240.937 232.65 241.255 232.032 241.521L210.759 311.739C210.143 313.124 209.279 314.365 208.216 315.389C207.154 316.413 205.915 317.2 204.57 317.705C203.225 318.211 201.801 318.424 200.379 318.334C198.957 318.243 197.566 317.85 196.285 317.177C195.005 316.505 193.86 315.565 192.917 314.414C191.974 313.262 191.251 311.92 190.79 310.466C190.329 309.012 190.139 307.474 190.231 305.94C190.323 304.406 190.694 302.907 191.325 301.529L213.948 232.091C213.332 229.793 213.25 227.368 213.71 225.028C214.169 222.688 215.156 220.506 216.583 218.676C218.01 216.846 219.833 215.424 221.891 214.535C223.949 213.646 226.178 213.319 228.381 213.581Z" fill="#FFB7B7"/>
<path d="M202.574 240.114C202.574 240.114 214.763 262.588 232.386 251.353L215.307 321.88H200.918L186.033 318.88L190.2 289.741L202.574 240.114Z" fill="#E5E5E5"/>
<path d="M289.61 255.475L279.512 240.515C279.512 240.515 284.365 224.998 303.184 230.672C303.184 230.672 315.159 259.597 289.61 255.475Z" fill="#E5E5E5"/>
<path opacity="0.17" d="M289.61 255.475L279.512 240.515C279.512 240.515 284.365 224.998 303.184 230.672C303.184 230.672 315.159 259.597 289.61 255.475Z" fill="#2F2E41"/>
<path d="M292.284 203.207C295.197 204.669 297.527 207.21 298.851 210.369C300.174 213.528 300.403 217.094 299.495 220.42L322.118 289.858C322.749 291.236 323.121 292.735 323.213 294.269C323.304 295.803 323.114 297.341 322.653 298.795C322.192 300.25 321.47 301.591 320.527 302.743C319.584 303.895 318.439 304.834 317.158 305.507C315.878 306.18 314.486 306.573 313.064 306.663C311.643 306.754 310.218 306.54 308.873 306.035C307.528 305.529 306.289 304.742 305.227 303.718C304.165 302.694 303.3 301.453 302.684 300.067L281.411 229.85C280.793 229.583 280.195 229.266 279.622 228.901C278.059 227.895 276.701 226.56 275.629 224.974C274.557 223.388 273.793 221.584 273.383 219.672C272.973 217.759 272.925 215.777 273.243 213.844C273.56 211.911 274.237 210.067 275.232 208.423V208.423C276.323 206.622 277.771 205.104 279.47 203.978C281.17 202.852 283.08 202.145 285.062 201.91C287.534 201.608 290.036 202.057 292.284 203.207Z" fill="#FFB7B7"/>
<path d="M279.512 240.515C279.512 240.515 296.173 251.424 303.184 230.672L326.661 297.377L319.685 310.543L318.676 310.634C314.514 311.008 310.331 310.287 306.484 308.532C302.638 306.777 299.244 304.04 296.593 300.558V300.558C291.188 293.454 287.508 285.009 285.886 275.986L279.512 240.515Z" fill="#E5E5E5"/>
</svg>
