<svg width="1445" height="161" viewBox="0 0 1445 161" fill="none" xmlns="http://www.w3.org/2000/svg">
<path d="M1443 2H2.00209V129.423C31.8664 151.742 108.513 182.99 176.183 129.423C243.853 75.8552 333.191 77.6503 360.875 95.4433C399.748 120.428 492.111 155.407 550.571 95.4433C609.032 35.4797 732.427 70.4584 786.817 95.4433C820.185 106.77 894.929 124.426 926.962 104.438C958.995 84.4499 1015.39 90.1132 1039.58 95.4433C1052.76 98.4414 1066.11 105.937 1079.62 118.429C1095.92 133.493 1117.66 162.085 1204.75 129.423C1236.28 117.596 1310.28 87.9221 1334.89 104.438C1363.92 123.926 1386.11 107.936 1393.95 104.438L1443 77.4542V2Z" fill="#566DBF" stroke="#566DBF" stroke-width="3"/>
</svg>
